<svg xmlns="http://www.w3.org/2000/svg" width="1672" height="1672" viewBox="0 0 1672 1672">
  <rect width="1672" height="1672" fill="#f3ead2"/>
  <g transform="translate(0 365)">
    <rect width="1672" height="941" fill="#f3ead2"/>
    <rect x="38" y="34" width="1596" height="873" fill="#f7f0dd" stroke="#111" stroke-width="8" transform="rotate(-0.6 836 470)"/>
    <g font-family="Arial Black, Impact, sans-serif" fill="#111">
      <text x="94" y="145" font-size="88">MODEL CHANGES</text>
      <text x="94" y="240" font-size="92">NEED RECEIPTS</text>
    </g>
    <g font-family="Arial, sans-serif" font-weight="700" font-size="35">
      <rect x="105" y="335" width="355" height="130" fill="#fff9e8" stroke="#123f2b" stroke-width="6"/>
      <text x="128" y="385" fill="#123f2b">LANGCHAIN</text>
      <text x="128" y="430" fill="#111">profiles summarize</text>
      <rect x="510" y="315" width="370" height="150" fill="#fff9e8" stroke="#123f2b" stroke-width="6"/>
      <text x="533" y="366" fill="#123f2b">_summary.py</text>
      <text x="533" y="412" fill="#111">structured diff</text>
      <text x="533" y="454" fill="#111">no module execute</text>
      <rect x="925" y="335" width="335" height="130" fill="#fff9e8" stroke="#123f2b" stroke-width="6"/>
      <text x="948" y="385" fill="#123f2b">OPENROUTER</text>
      <text x="948" y="430" fill="#111">parallel tool calls</text>
      <rect x="1300" y="315" width="285" height="150" fill="#fff9e8" stroke="#123f2b" stroke-width="6"/>
      <text x="1323" y="366" fill="#123f2b">PI</text>
      <text x="1323" y="412" fill="#111">models runtime</text>
      <text x="1323" y="454" fill="#111">migration</text>
    </g>
    <g stroke="#111" stroke-width="9" fill="none" stroke-linecap="round">
      <path d="M282 498 C420 605, 560 670, 740 690"/>
      <path d="M690 500 C730 610, 782 650, 835 682"/>
      <path d="M1090 500 C1005 600, 940 650, 872 685"/>
      <path d="M1442 500 C1280 620, 1105 682, 920 705"/>
    </g>
    <ellipse cx="835" cy="715" rx="395" ry="118" fill="#fff7d5" stroke="#111" stroke-width="10"/>
    <text x="555" y="735" font-family="Arial Black, Impact, sans-serif" font-size="58" fill="#111">REVIEW BEFORE RUNTIME</text>
    <g transform="rotate(-7 1310 760)">
      <rect x="1135" y="730" width="330" height="78" fill="none" stroke="#9b2d22" stroke-width="8"/>
      <text x="1160" y="782" font-family="Arial Black, Impact, sans-serif" font-size="32" fill="#9b2d22">NOT A STANDARD</text>
    </g>
  </g>
</svg>
