<svg xmlns="http://www.w3.org/2000/svg" width="1672" height="1672" viewBox="0 0 1672 1672">
  <rect width="1672" height="1672" fill="#f1e8cf"/>
  <g transform="translate(0 365)">
    <rect width="1672" height="941" fill="#f1e8cf"/>
    <rect x="42" y="40" width="1588" height="860" fill="#f8f1df" stroke="#111" stroke-width="8" transform="rotate(0.8 836 470)"/>
    <g font-family="Arial Black, Impact, sans-serif" fill="#111">
      <text x="88" y="135" font-size="78">MCP CONTEXT NEEDS</text>
      <text x="88" y="226" font-size="88">A RECEIPT TRAIL</text>
    </g>
    <g font-family="Arial, sans-serif" font-weight="700" font-size="32">
      <rect x="100" y="320" width="292" height="122" fill="#fff9e8" stroke="#123f2b" stroke-width="6"/>
      <text x="122" y="368" fill="#123f2b" font-size="29">SHOUBHIT DASH</text>
      <text x="122" y="410" fill="#111">two commits</text>
      <rect x="405" y="312" width="292" height="134" fill="#fff9e8" stroke="#123f2b" stroke-width="6"/>
      <text x="428" y="360" fill="#123f2b">LIST</text>
      <text x="428" y="404" fill="#111">mcp resources</text>
      <rect x="735" y="312" width="292" height="134" fill="#fff9e8" stroke="#123f2b" stroke-width="6"/>
      <text x="758" y="360" fill="#123f2b">READ</text>
      <text x="758" y="404" fill="#111">mcp resource</text>
      <rect x="1065" y="312" width="292" height="134" fill="#fff9e8" stroke="#123f2b" stroke-width="6"/>
      <text x="1088" y="360" fill="#123f2b">TEMPLATES</text>
      <text x="1088" y="404" fill="#111">uri patterns</text>
      <rect x="1390" y="320" width="190" height="122" fill="#fff9e8" stroke="#123f2b" stroke-width="6"/>
      <text x="1410" y="368" fill="#123f2b">LIMITS</text>
      <text x="1410" y="410" fill="#111">10 MB cap</text>
    </g>
    <g stroke="#111" stroke-width="9" fill="none" stroke-linecap="round">
      <path d="M235 475 C350 610, 500 665, 685 690"/>
      <path d="M550 475 C630 600, 700 650, 760 690"/>
      <path d="M880 475 C870 585, 860 640, 842 690"/>
      <path d="M1210 475 C1110 600, 1000 660, 905 700"/>
      <path d="M1485 475 C1320 610, 1120 690, 980 720"/>
    </g>
    <ellipse cx="835" cy="730" rx="410" ry="120" fill="#fff7d5" stroke="#111" stroke-width="10"/>
    <text x="535" y="720" font-family="Arial Black, Impact, sans-serif" font-size="54" fill="#111">READABLE, BOUNDED</text>
    <text x="675" y="778" font-family="Arial Black, Impact, sans-serif" font-size="54" fill="#111">CONTEXT</text>
    <g transform="rotate(5 1305 770)">
      <rect x="1175" y="735" width="275" height="78" fill="none" stroke="#9b2d22" stroke-width="8"/>
      <text x="1200" y="786" font-family="Arial Black, Impact, sans-serif" font-size="36" fill="#9b2d22">UX TO PROVE</text>
    </g>
  </g>
</svg>
