<svg xmlns="http://www.w3.org/2000/svg" width="1600" height="900" viewBox="0 0 1600 900" role="img" aria-labelledby="title desc">
  <title id="title">More plugins, more tolls</title>
  <desc id="desc">Diagram Punk poster showing plugin and MCP evidence cards passing through a trust-layer toll gate.</desc>
  <rect width="1600" height="900" fill="#f4ead4"/>
  <path d="M36 45 C198 18 288 42 424 33 C603 21 760 53 944 35 C1175 12 1361 41 1562 26 L1576 860 C1388 881 1215 851 1001 868 C814 884 623 842 436 866 C274 887 149 858 30 876 Z" fill="#fff6dc" stroke="#111" stroke-width="7"/>
  <g opacity="0.16" stroke="#111" stroke-width="2">
    <path d="M80 129 L1530 116"/>
    <path d="M82 216 L1519 207"/>
    <path d="M70 704 L1518 688"/>
    <path d="M132 790 L1466 774"/>
    <path d="M240 58 L220 840"/>
    <path d="M1372 72 L1394 835"/>
  </g>
  <text x="97" y="152" font-family="Arial Black, Impact, sans-serif" font-size="92" letter-spacing="0" fill="#101010">MORE PLUGINS.</text>
  <text x="98" y="242" font-family="Arial Black, Impact, sans-serif" font-size="92" letter-spacing="0" fill="#101010">MORE TOLLS.</text>
  <path d="M98 268 C270 249 461 258 612 239" fill="none" stroke="#a33a26" stroke-width="13" stroke-linecap="round"/>
  <g transform="translate(1010 92) rotate(-7)">
    <rect x="0" y="0" width="384" height="108" fill="none" stroke="#a33a26" stroke-width="9"/>
    <text x="26" y="48" font-family="Arial Black, Impact, sans-serif" font-size="31" fill="#a33a26">HERMES</text>
    <text x="26" y="87" font-family="Arial Black, Impact, sans-serif" font-size="31" fill="#a33a26">EVIDENCE ONLY</text>
  </g>
  <g transform="translate(86 335)">
    <rect x="0" y="0" width="285" height="150" rx="8" fill="#fdf6e6" stroke="#111" stroke-width="6"/>
    <rect x="15" y="15" width="115" height="31" fill="#174b38"/>
    <text x="27" y="39" font-family="Arial Black, Impact, sans-serif" font-size="20" fill="#fff6dc">00ec0b61</text>
    <text x="19" y="80" font-family="Arial Black, Impact, sans-serif" font-size="31" fill="#111">TTS HOOK</text>
    <text x="19" y="119" font-family="Arial, sans-serif" font-size="25" font-weight="700" fill="#111">built-ins win</text>
  </g>
  <g transform="translate(86 540) rotate(-2)">
    <rect x="0" y="0" width="285" height="150" rx="8" fill="#fdf6e6" stroke="#111" stroke-width="6"/>
    <rect x="15" y="15" width="115" height="31" fill="#174b38"/>
    <text x="27" y="39" font-family="Arial Black, Impact, sans-serif" font-size="20" fill="#fff6dc">2f91a840</text>
    <text x="19" y="78" font-family="Arial Black, Impact, sans-serif" font-size="30" fill="#111">MCP NAMES</text>
    <text x="19" y="119" font-family="Arial, sans-serif" font-size="25" font-weight="700" fill="#111">registry decides</text>
  </g>
  <g transform="translate(1226 328) rotate(2)">
    <rect x="0" y="0" width="285" height="150" rx="8" fill="#fdf6e6" stroke="#111" stroke-width="6"/>
    <rect x="15" y="15" width="115" height="31" fill="#174b38"/>
    <text x="27" y="39" font-family="Arial Black, Impact, sans-serif" font-size="20" fill="#fff6dc">7ab16773</text>
    <text x="19" y="78" font-family="Arial Black, Impact, sans-serif" font-size="31" fill="#111">OSV AUDIT</text>
    <text x="19" y="119" font-family="Arial, sans-serif" font-size="25" font-weight="700" fill="#111">plugins + MCP</text>
  </g>
  <g transform="translate(1226 538)">
    <rect x="0" y="0" width="285" height="150" rx="8" fill="#fdf6e6" stroke="#111" stroke-width="6"/>
    <rect x="15" y="15" width="115" height="31" fill="#174b38"/>
    <text x="27" y="39" font-family="Arial Black, Impact, sans-serif" font-size="20" fill="#fff6dc">4f4e337c</text>
    <text x="19" y="78" font-family="Arial Black, Impact, sans-serif" font-size="31" fill="#111">PAIRING</text>
    <text x="19" y="119" font-family="Arial, sans-serif" font-size="25" font-weight="700" fill="#111">write denied</text>
  </g>
  <g transform="translate(621 322)">
    <path d="M130 0 L390 0 L390 300 L130 300 Z" fill="#e8dbc0" stroke="#111" stroke-width="8"/>
    <path d="M171 0 L171 300" stroke="#111" stroke-width="7"/>
    <path d="M349 0 L349 300" stroke="#111" stroke-width="7"/>
    <rect x="194" y="58" width="132" height="54" fill="#174b38" stroke="#111" stroke-width="5"/>
    <text x="214" y="95" font-family="Arial Black, Impact, sans-serif" font-size="28" fill="#fff6dc">TRUST</text>
    <rect x="194" y="177" width="132" height="54" fill="#a33a26" stroke="#111" stroke-width="5"/>
    <text x="216" y="214" font-family="Arial Black, Impact, sans-serif" font-size="28" fill="#fff6dc">TOLL</text>
    <path d="M0 98 C47 94 91 94 130 98" fill="none" stroke="#111" stroke-width="12" stroke-linecap="round"/>
    <path d="M390 98 C433 93 475 93 520 98" fill="none" stroke="#111" stroke-width="12" stroke-linecap="round"/>
    <path d="M0 218 C46 212 91 214 130 218" fill="none" stroke="#111" stroke-width="12" stroke-linecap="round"/>
    <path d="M390 218 C434 214 477 214 520 218" fill="none" stroke="#111" stroke-width="12" stroke-linecap="round"/>
    <path d="M44 70 L130 98 L44 126" fill="none" stroke="#111" stroke-width="9" stroke-linejoin="round"/>
    <path d="M476 70 L390 98 L476 126" fill="none" stroke="#111" stroke-width="9" stroke-linejoin="round"/>
    <path d="M44 190 L130 218 L44 246" fill="none" stroke="#111" stroke-width="9" stroke-linejoin="round"/>
    <path d="M476 190 L390 218 L476 246" fill="none" stroke="#111" stroke-width="9" stroke-linejoin="round"/>
  </g>
  <ellipse cx="800" cy="760" rx="418" ry="78" fill="none" stroke="#a33a26" stroke-width="14"/>
  <text x="512" y="748" font-family="Arial Black, Impact, sans-serif" font-size="43" fill="#111">EXTENSION SURFACE</text>
  <text x="573" y="799" font-family="Arial Black, Impact, sans-serif" font-size="43" fill="#111">= TRUST SURFACE</text>
  <path d="M425 437 C506 423 567 403 635 389" fill="none" stroke="#111" stroke-width="9" stroke-linecap="round"/>
  <path d="M425 627 C516 612 568 579 634 540" fill="none" stroke="#111" stroke-width="9" stroke-linecap="round"/>
  <path d="M1184 433 C1112 416 1049 398 1007 384" fill="none" stroke="#111" stroke-width="9" stroke-linecap="round"/>
  <path d="M1184 617 C1114 599 1047 572 1008 540" fill="none" stroke="#111" stroke-width="9" stroke-linecap="round"/>
  <g opacity="0.2" fill="#111">
    <circle cx="150" cy="820" r="5"/>
    <circle cx="181" cy="812" r="3"/>
    <circle cx="1420" cy="246" r="4"/>
    <circle cx="1450" cy="762" r="6"/>
    <circle cx="642" cy="208" r="4"/>
    <circle cx="928" cy="236" r="5"/>
  </g>
</svg>
