<svg xmlns="http://www.w3.org/2000/svg" width="1600" height="900" viewBox="0 0 1600 900">
<rect width="1600" height="900" fill="#181511"/>
<rect x="54" y="50" width="1492" height="800" fill="#e9dfc8" stroke="#111" stroke-width="10"/>
<path d="M90 170 C380 95 650 230 940 150 S1320 105 1500 190" fill="none" stroke="#111" stroke-width="9"/>
<text x="95" y="142" font-size="66" font-family="Arial Black, Arial" fill="#111">THE AGENT SETUP NEEDED A CLAIM CHECK</text>
<text x="105" y="210" font-size="24" font-family="Arial" fill="#111">Diagram Punk source board | June 29 Daily Edition</text>
<g transform="translate(95 285)"><rect width="300" height="105" rx="4" fill="#f6f0dd" stroke="#111" stroke-width="5"/><text x="22" y="44" font-size="26" font-family="Arial Black, Arial" fill="#111">different-ai/openwork</text><path d="M18 75 H282" stroke="#d92323" stroke-width="7" stroke-linecap="round"/></g>
<g transform="translate(450 285)"><rect width="300" height="105" rx="4" fill="#f6f0dd" stroke="#111" stroke-width="5"/><text x="22" y="44" font-size="26" font-family="Arial Black, Arial" fill="#111">commit 42110fe</text><path d="M18 75 H282" stroke="#d92323" stroke-width="7" stroke-linecap="round"/></g>
<g transform="translate(805 285)"><rect width="300" height="105" rx="4" fill="#f6f0dd" stroke="#111" stroke-width="5"/><text x="22" y="44" font-size="26" font-family="Arial Black, Arial" fill="#111">/start.md</text><path d="M18 75 H282" stroke="#d92323" stroke-width="7" stroke-linecap="round"/></g>
<g transform="translate(95 450)"><rect width="300" height="105" rx="4" fill="#f6f0dd" stroke="#111" stroke-width="5"/><text x="22" y="44" font-size="26" font-family="Arial Black, Arial" fill="#111">claim links</text><path d="M18 75 H282" stroke="#d92323" stroke-width="7" stroke-linecap="round"/></g>
<g transform="translate(450 450)"><rect width="300" height="105" rx="4" fill="#f6f0dd" stroke="#111" stroke-width="5"/><text x="22" y="44" font-size="26" font-family="Arial Black, Arial" fill="#111">human ownership</text><path d="M18 75 H282" stroke="#d92323" stroke-width="7" stroke-linecap="round"/></g>
<g transform="translate(985 595) rotate(-8)"><rect width="420" height="105" fill="#d92323" stroke="#111" stroke-width="6"/><text x="27" y="66" font-size="38" font-family="Arial Black, Arial" fill="#fff">NOT STANDARD YET</text></g>
<path d="M158 650 L530 545 L890 650 L1260 510" fill="none" stroke="#111" stroke-width="12" stroke-linecap="round" stroke-dasharray="28 18"/>
<circle cx="530" cy="545" r="32" fill="none" stroke="#d92323" stroke-width="10"/>
<circle cx="890" cy="650" r="32" fill="none" stroke="#d92323" stroke-width="10"/>
<g opacity="0.22"><circle cx="0" cy="0" r="2" fill="#111"/><circle cx="137" cy="79" r="3" fill="#111"/><circle cx="274" cy="158" r="4" fill="#111"/><circle cx="411" cy="237" r="5" fill="#111"/><circle cx="548" cy="316" r="6" fill="#111"/><circle cx="685" cy="395" r="2" fill="#111"/><circle cx="822" cy="474" r="3" fill="#111"/><circle cx="959" cy="553" r="4" fill="#111"/><circle cx="1096" cy="632" r="5" fill="#111"/><circle cx="1233" cy="711" r="6" fill="#111"/><circle cx="1370" cy="790" r="2" fill="#111"/><circle cx="1507" cy="869" r="3" fill="#111"/><circle cx="44" cy="48" r="4" fill="#111"/><circle cx="181" cy="127" r="5" fill="#111"/><circle cx="318" cy="206" r="6" fill="#111"/><circle cx="455" cy="285" r="2" fill="#111"/><circle cx="592" cy="364" r="3" fill="#111"/><circle cx="729" cy="443" r="4" fill="#111"/><circle cx="866" cy="522" r="5" fill="#111"/><circle cx="1003" cy="601" r="6" fill="#111"/><circle cx="1140" cy="680" r="2" fill="#111"/><circle cx="1277" cy="759" r="3" fill="#111"/><circle cx="1414" cy="838" r="4" fill="#111"/><circle cx="1551" cy="17" r="5" fill="#111"/><circle cx="88" cy="96" r="6" fill="#111"/><circle cx="225" cy="175" r="2" fill="#111"/><circle cx="362" cy="254" r="3" fill="#111"/><circle cx="499" cy="333" r="4" fill="#111"/><circle cx="636" cy="412" r="5" fill="#111"/><circle cx="773" cy="491" r="6" fill="#111"/><circle cx="910" cy="570" r="2" fill="#111"/><circle cx="1047" cy="649" r="3" fill="#111"/><circle cx="1184" cy="728" r="4" fill="#111"/><circle cx="1321" cy="807" r="5" fill="#111"/><circle cx="1458" cy="886" r="6" fill="#111"/><circle cx="1595" cy="65" r="2" fill="#111"/><circle cx="132" cy="144" r="3" fill="#111"/><circle cx="269" cy="223" r="4" fill="#111"/><circle cx="406" cy="302" r="5" fill="#111"/><circle cx="543" cy="381" r="6" fill="#111"/><circle cx="680" cy="460" r="2" fill="#111"/><circle cx="817" cy="539" r="3" fill="#111"/><circle cx="954" cy="618" r="4" fill="#111"/><circle cx="1091" cy="697" r="5" fill="#111"/><circle cx="1228" cy="776" r="6" fill="#111"/><circle cx="1365" cy="855" r="2" fill="#111"/><circle cx="1502" cy="34" r="3" fill="#111"/><circle cx="39" cy="113" r="4" fill="#111"/><circle cx="176" cy="192" r="5" fill="#111"/><circle cx="313" cy="271" r="6" fill="#111"/><circle cx="450" cy="350" r="2" fill="#111"/><circle cx="587" cy="429" r="3" fill="#111"/><circle cx="724" cy="508" r="4" fill="#111"/><circle cx="861" cy="587" r="5" fill="#111"/><circle cx="998" cy="666" r="6" fill="#111"/><circle cx="1135" cy="745" r="2" fill="#111"/><circle cx="1272" cy="824" r="3" fill="#111"/><circle cx="1409" cy="3" r="4" fill="#111"/><circle cx="1546" cy="82" r="5" fill="#111"/><circle cx="83" cy="161" r="6" fill="#111"/></g>
</svg>