<svg xmlns="http://www.w3.org/2000/svg" width="360" height="260" viewBox="0 0 360 260">
    <defs>
      <linearGradient id="bg" x1="0" y1="0" x2="1" y2="1">
        <stop offset="0%" stop-color="#221a1a"/>
        <stop offset="100%" stop-color="#0b1020"/>
      </linearGradient>
      <filter id="glow"><feGaussianBlur stdDeviation="6" result="b"/><feMerge><feMergeNode in="b"/><feMergeNode in="SourceGraphic"/></feMerge></filter>
    </defs>
    <rect width="360" height="260" rx="22" fill="url(#bg)"/>
    <text x="20" y="28" fill="#dfe8ff" font-size="14" font-family="Arial">Mistral Vibe · Episode 10</text>

        <circle cx="180" cy="86" r="34" fill="#221a1a" stroke="#ff9f57" stroke-width="3"/>
        <polygon points="156,64 168,34 180,60" fill="#221a1a" stroke="#ff9f57" stroke-width="3"/>
        <polygon points="204,64 192,34 180,60" fill="#221a1a" stroke="#ff9f57" stroke-width="3"/>
        <path d="M132 196 Q140 122 180 116 Q220 122 228 196 Z" fill="#221a1a" stroke="#ff9f57" stroke-width="3"/>
        <circle cx="180" cy="138" r="18" fill="#ffe0b2" filter="url(#glow)"/>
        <path d="M108 102 Q180 50 252 102" stroke="#ffd27a" stroke-width="3" fill="none" opacity="0.9"/>
<circle cx="180" cy="92" r="4" fill="#ffd27a"/>
<rect x="54" y="132" width="26" height="10" rx="5" fill="#ff9f57"/><rect x="280" y="132" width="26" height="10" rx="5" fill="#ff9f57"/>
<circle cx="180" cy="136" r="48" stroke="#ff9f57" stroke-width="3" fill="none" opacity="0.55" stroke-dasharray="8 6"/>
<path d="M224 122 l10 8 -10 8" stroke="#ff9f57" stroke-width="3" fill="none"/>
<circle cx="86" cy="58" r="12" fill="#ffd27a" opacity="0.85"/><circle cx="274" cy="58" r="12" fill="#ffd27a" opacity="0.85"/>
<line x1="98" y1="66" x2="148" y2="102" stroke="#ffd27a" stroke-width="2" opacity="0.7"/><line x1="262" y1="66" x2="212" y2="102" stroke="#ffd27a" stroke-width="2" opacity="0.7"/>
<rect x="88" y="202" width="32" height="20" rx="6" fill="#ffe0b2" opacity="0.9"/><rect x="240" y="202" width="32" height="20" rx="6" fill="#ffe0b2" opacity="0.9"/>
<rect x="156" y="208" width="48" height="18" rx="4" fill="none" stroke="#ffd27a" stroke-width="2"/><circle cx="180" cy="206" r="8" fill="#0b1020" stroke="#ffd27a" stroke-width="2"/>
<rect x="20" y="42" width="64" height="40" rx="8" fill="#10182d" stroke="#ff9f57" stroke-width="2" opacity="0.9"/><rect x="276" y="42" width="64" height="40" rx="8" fill="#10182d" stroke="#ff9f57" stroke-width="2" opacity="0.9"/>
<rect x="165" y="116" width="30" height="42" rx="8" fill="#ffffff18" stroke="#dff8ff" stroke-width="1.5"/>
<circle cx="56" cy="214" r="10" fill="#ff9f57" opacity="0.7"/><circle cx="304" cy="214" r="10" fill="#ff9f57" opacity="0.7"/><line x1="66" y1="214" x2="120" y2="212" stroke="#ff9f57" stroke-width="2" opacity="0.6"/><line x1="240" y1="212" x2="294" y2="214" stroke="#ff9f57" stroke-width="2" opacity="0.6"/><text x="20" y="240" fill="#9fb0d9" font-size="13" font-family="Arial">Future</text></svg>