<svg xmlns="http://www.w3.org/2000/svg" width="360" height="260" viewBox="0 0 360 260">
    <defs>
      <linearGradient id="bg" x1="0" y1="0" x2="1" y2="1">
        <stop offset="0%" stop-color="#0f2740"/>
        <stop offset="100%" stop-color="#0b1020"/>
      </linearGradient>
      <filter id="glow"><feGaussianBlur stdDeviation="6" result="b"/><feMerge><feMergeNode in="b"/><feMergeNode in="SourceGraphic"/></feMerge></filter>
    </defs>
    <rect width="360" height="260" rx="22" fill="url(#bg)"/>
    <text x="20" y="28" fill="#dfe8ff" font-size="14" font-family="Arial">OpenClaw · Episode 6</text>

        <ellipse cx="180" cy="140" rx="64" ry="74" fill="#0f2740" stroke="#5ee7ff" stroke-width="3"/>
        <circle cx="180" cy="140" r="22" fill="#8ef7ff" filter="url(#glow)"/>
        <path d="M122 122 C85 112, 78 88, 58 78" stroke="#5ee7ff" stroke-width="7" fill="none" stroke-linecap="round"/>
        <path d="M238 122 C275 112, 282 88, 302 78" stroke="#5ee7ff" stroke-width="7" fill="none" stroke-linecap="round"/>
        <path d="M147 75 C128 50, 114 38, 100 28" stroke="#5ee7ff" stroke-width="3" fill="none"/>
        <path d="M213 75 C232 50, 246 38, 260 28" stroke="#5ee7ff" stroke-width="3" fill="none"/>
        <path d="M108 102 Q180 50 252 102" stroke="#ff8ad8" stroke-width="3" fill="none" opacity="0.9"/>
<circle cx="180" cy="92" r="4" fill="#ff8ad8"/>
<rect x="54" y="132" width="26" height="10" rx="5" fill="#5ee7ff"/><rect x="280" y="132" width="26" height="10" rx="5" fill="#5ee7ff"/>
<circle cx="180" cy="136" r="48" stroke="#5ee7ff" stroke-width="3" fill="none" opacity="0.55" stroke-dasharray="8 6"/>
<path d="M224 122 l10 8 -10 8" stroke="#5ee7ff" stroke-width="3" fill="none"/>
<circle cx="86" cy="58" r="12" fill="#ff8ad8" opacity="0.85"/><circle cx="274" cy="58" r="12" fill="#ff8ad8" opacity="0.85"/>
<line x1="98" y1="66" x2="148" y2="102" stroke="#ff8ad8" stroke-width="2" opacity="0.7"/><line x1="262" y1="66" x2="212" y2="102" stroke="#ff8ad8" stroke-width="2" opacity="0.7"/>
<rect x="88" y="202" width="32" height="20" rx="6" fill="#8ef7ff" opacity="0.9"/><rect x="240" y="202" width="32" height="20" rx="6" fill="#8ef7ff" opacity="0.9"/><text x="20" y="240" fill="#9fb0d9" font-size="13" font-family="Arial">Memory</text></svg>